# xmcd CD database file
#
# Track frame offsets:
#	150
#	12607
#	24550
#	37517
#	49591
#	60401
#	73414
#	86526
#	99242
#	110729
#	123381
#	135213
#	147003
#	159774
#	171223
#	183503
#	196328
#	209033
#	220885
#	232200
#	243601
#	254123
#	264538
#	280280
#	292082
#
# Disc length: 4048 seconds
#
# Revision: 0
# Processed by: cddbd v1.5.2PL0 Copyright (c) Steve Scherf et al.
# Submitted via: CDex 1.77
#
DISCID=7b0fce19
DTITLE=Jim Reeves - The Complete Abbott Recordings, Plus [CD2)
DYEAR=2014
DGENRE=Country
TTITLE0=Jim Reeves - Mexican Joe (take 1)
TTITLE1=Jim Reeves - Mexican Joe (master, take 2)
TTITLE2=Jim Reeves - Butterfly Love (master, take 2)
TTITLE3=Jim Reeves - Let Me Remember (Things I Can't Forget) (take 1 and false start)
TTITLE4=Jim Reeves - Let Me Remember (Things I Can't Forget) (take 2)
TTITLE5=Jim Reeves - A Woman's Love (take 1)
TTITLE6=Jim Reeves - A Woman's Love (take 2)
TTITLE7=Jim Reeves - Let Me Love You Just A Little (master)
TTITLE8=Jim Reeves - El Rancho Del Rio (take 1)
TTITLE9=Jim Reeves - El Rancho Del Rio (take 2)
TTITLE10=Jim Reeves - El Rancho Del Rio (take 3)
TTITLE11=Jim Reeves - El Rancho Del Rio (master, take 3)
TTITLE12=Jim Reeves - It's Hard To Love Just One (master)
TTITLE13=Jim Reeves - Gypsy Heart (master)
TTITLE14=Jim Reeves and Ginny Wright - I Love You (master)
TTITLE15=Jim Reeves - Bimbo (master)
TTITLE16=Jim Reeves - Echo Bonita (master)
TTITLE17=Jim Reeves - Then I'll Stop Loving You (master, take 3)
TTITLE18=Jim Reeves - Then I'll Stop Loving You (take 3 and false start)
TTITLE19=Jim Reeves - Then I'll Stop Loving You (alternate)
TTITLE20=Jim Reeves - My Rambling Heart (take 11)
TTITLE21=Jim Reeves - My Rambling Heart (master)
TTITLE22=Jim Reeves - My Rambling Heart (alternate)
TTITLE23=Jim Reeves - Give Me One More Kiss (master, take 6)
TTITLE24=Jim Reeves - Give Me One More Kiss (take 7)
EXTD=YEAR: 2014
EXTT0=
EXTT1=
EXTT2=
EXTT3=
EXTT4=
EXTT5=
EXTT6=
EXTT7=
EXTT8=
EXTT9=
EXTT10=
EXTT11=
EXTT12=
EXTT13=
EXTT14=
EXTT15=
EXTT16=
EXTT17=
EXTT18=
EXTT19=
EXTT20=
EXTT21=
EXTT22=
EXTT23=
EXTT24=
PLAYORDER=
